<svg xmlns="http://www.w3.org/2000/svg" viewBox="-2 -2 97.2 21.0" width="389" height="84">
<filter id="ink" x="-5%" y="-5%" width="110%" height="110%"><feTurbulence type="fractalNoise" baseFrequency="0.9" numOctaves="2" seed="29"/><feDisplacementMap in="SourceGraphic" scale="0.45"/></filter>

<g fill="none" stroke="#1a1a1a" stroke-width="1.35" stroke-linecap="round" stroke-linejoin="round" filter="url(#ink)">
<path d="M-0.15 11.98 C0.18 10.20 1.01 3.05 1.83 1.31 C2.66 -0.43 4.11 1.23 4.81 1.54 C5.51 1.85 5.90 2.49 6.02 3.18 C6.15 3.88 5.91 5.05 5.56 5.69 C5.22 6.34 4.79 6.85 3.95 7.05 C3.12 7.25 1.11 6.92 0.55 6.89"/>
<path d="M11.94 1.72 C11.15 1.68 8.17 -0.27 7.21 1.50 C6.25 3.27 5.62 10.49 6.20 12.33 C6.77 14.17 9.79 12.50 10.64 12.54 C11.50 12.58 11.20 12.56 11.31 12.57"/>
<path d="M6.93 7.05 L10.18 7.13"/>
<path d="M12.82 2.55 L17.72 2.45"/>
<path d="M15.58 2.48 L14.91 12.49"/>
<path d="M22.55 1.66 C22.28 1.82 21.37 2.01 20.93 2.61 C20.49 3.20 20.07 4.36 19.90 5.24 C19.72 6.12 19.79 6.99 19.88 7.89 C19.98 8.78 20.13 9.97 20.46 10.60 C20.78 11.23 21.30 11.68 21.83 11.67 C22.37 11.66 23.16 11.18 23.67 10.53 C24.19 9.87 24.68 8.66 24.92 7.74 C25.15 6.81 25.18 5.87 25.06 4.98 C24.95 4.10 24.58 3.00 24.25 2.43 C23.92 1.86 23.27 1.70 23.07 1.55"/>
<path d="M31.75 3.85 C31.53 3.68 30.91 2.98 30.43 2.81 C29.94 2.64 29.25 2.57 28.82 2.84 C28.40 3.11 28.06 3.91 27.87 4.43 C27.69 4.94 27.44 5.44 27.71 5.94 C27.99 6.43 28.90 6.94 29.52 7.39 C30.15 7.83 31.12 8.08 31.47 8.61 C31.81 9.13 31.77 9.93 31.60 10.53 C31.42 11.14 30.94 11.96 30.40 12.24 C29.87 12.53 28.90 12.40 28.39 12.23 C27.88 12.07 27.52 11.43 27.35 11.27"/>
<path d="M34.53 2.82 L33.27 12.50"/>
<path d="M38.69 2.84 L33.78 8.42"/>
<path d="M35.26 6.79 L37.98 12.48"/>
<path d="M45.03 2.29 C44.36 2.30 41.96 0.75 41.02 2.34 C40.08 3.93 38.96 10.19 39.40 11.80 C39.83 13.41 42.83 11.96 43.64 12.00 C44.46 12.03 44.17 12.02 44.28 12.02"/>
<path d="M40.25 6.94 L43.38 6.95"/>
<path d="M45.72 0.91 L48.03 6.07"/>
<path d="M50.92 0.94 C50.44 1.81 48.55 4.38 48.03 6.12 C47.51 7.85 47.84 10.49 47.80 11.37"/>
<path d="M61.15 3.59 C60.98 3.36 60.56 2.51 60.13 2.25 C59.70 1.99 59.04 1.85 58.58 2.03 C58.11 2.21 57.55 2.76 57.33 3.31 C57.11 3.86 57.02 4.78 57.26 5.36 C57.51 5.93 58.26 6.35 58.80 6.76 C59.33 7.18 60.15 7.30 60.47 7.85 C60.80 8.39 60.90 9.45 60.74 10.04 C60.59 10.63 60.06 11.19 59.55 11.38 C59.05 11.58 58.27 11.43 57.73 11.22 C57.20 11.00 56.56 10.28 56.33 10.10"/>
<path d="M63.39 1.74 L68.65 1.56"/>
<path d="M66.14 1.62 L65.40 12.17"/>
<path d="M74.62 1.31 C74.28 1.44 73.08 1.49 72.54 2.12 C72.00 2.75 71.68 4.14 71.38 5.09 C71.07 6.05 70.70 6.87 70.70 7.85 C70.70 8.84 71.00 10.37 71.38 10.99 C71.76 11.62 72.39 11.63 72.96 11.58 C73.54 11.54 74.30 11.30 74.84 10.72 C75.38 10.14 75.93 9.01 76.19 8.11 C76.44 7.21 76.43 6.34 76.38 5.34 C76.33 4.34 76.18 2.77 75.90 2.12 C75.61 1.46 74.88 1.51 74.67 1.39"/>
<path d="M78.02 12.03 C78.00 10.33 77.11 1.84 77.87 1.83 C78.64 1.81 81.79 11.99 82.61 11.95 C83.42 11.91 82.74 3.31 82.77 1.58"/>
<path d="M90.38 2.60 C89.72 2.56 87.32 0.81 86.42 2.39 C85.51 3.97 84.49 10.45 84.94 12.09 C85.39 13.73 88.43 12.20 89.13 12.22"/>
<path d="M85.73 7.09 L89.03 7.11"/>

</g></svg>
